<svg width="35" height="35" viewBox="0 0 35 35" fill="none" xmlns="http://www.w3.org/2000/svg">
<path fill-rule="evenodd" clip-rule="evenodd" d="M1.93035 6.18242e-08H33.068C34.1346 -0.000266905 34.9995 0.864105 35 1.93035V33.068V33.0688C34.9997 34.1356 34.1348 35.0003 33.068 35H25.0594V21.3346H29.6427L30.3294 15.9858H25.0594V12.5792C25.0594 11.0341 25.4861 9.98135 27.6903 9.98135H30.4839V5.21029C29.9979 5.14531 28.3303 5 26.39 5C22.3388 5 19.5662 7.48461 19.5662 12.0494V15.9858H15V21.3346H19.5662V35H1.93195C0.86544 35.0003 0.000534181 34.1359 6.18242e-08 33.0696V1.93195C-0.000266905 0.86544 0.864105 0.000534181 1.93035 6.18242e-08Z" fill="white"/>
</svg>
