<svg width="485" height="465" viewBox="0 0 485 465" fill="none" xmlns="http://www.w3.org/2000/svg">
<path d="M189.084 274.634C176.796 253.744 174.886 230.055 181.867 210.174L138.455 184.965C128.72 209.142 127.13 237.084 134.651 264.326C148.758 265.677 162.57 274.149 170.734 288.027C178.607 301.412 179.421 316.669 174.194 329.077C194.232 347.598 218.887 359.223 244.166 362.685L241.446 312.868C220.728 308.613 201.181 295.201 189.084 274.634Z" fill="#458E72"/>
<path d="M157.872 295.927C167.307 311.851 162.988 331.473 148.248 339.725C133.5 347.982 113.882 341.762 104.446 325.836C95.0162 309.92 99.327 290.303 114.074 282.047C128.815 273.795 148.442 280.01 157.872 295.927Z" fill="#458E72"/>
<path d="M353.467 273.86C359.74 270.347 366.628 268.7 373.563 268.741C378.812 241.263 374.855 211.101 360.632 183.204L318.224 205.786C335.128 241.578 324.268 282.918 292.009 300.984C283.08 305.985 273.356 308.725 263.49 309.357L266.009 360.427C284.266 360.042 302.308 355.466 318.805 346.227C325.924 342.24 332.444 337.55 338.293 332.297C327.314 310.533 333.704 284.928 353.467 273.86Z" fill="#458E72"/>
<path d="M402.727 295.981C412.16 311.902 407.862 331.505 393.114 339.761C378.366 348.018 358.758 341.799 349.325 325.878C339.885 309.944 344.193 290.34 358.941 282.084C373.69 273.827 393.287 280.048 402.727 295.981Z" fill="#458E72"/>
<path d="M291.931 121.173C288.596 129.268 282.765 136.22 274.698 140.738C253.977 152.343 226.448 143.585 213.181 121.183C212.476 119.993 211.844 118.815 211.241 117.614C204.169 119.838 197.263 122.814 190.614 126.538C173.959 135.866 160.72 148.928 151.209 164.255L195.276 192.103C200.846 183.902 208.26 176.891 217.402 171.77C249.383 153.858 291.175 165.151 314.651 196.691L355.73 171.842C339.224 148.132 316.646 130.842 291.931 121.173Z" fill="#458E72"/>
<path d="M280.302 86.5304C289.74 102.459 285.466 122.049 270.703 130.315C255.956 138.571 236.347 132.351 226.91 116.422C217.471 100.492 221.775 80.8799 236.522 72.6238C251.285 64.3585 270.864 70.6006 280.302 86.5304Z" fill="#458E72"/>
<circle cx="252.5" cy="232.5" r="220.515" stroke="#458E72" stroke-width="23.9691"/>
</svg>
