<svg width="465" height="465" viewBox="0 0 465 465" fill="none" xmlns="http://www.w3.org/2000/svg">
<circle cx="232.5" cy="232.5" r="224.729" stroke="#458E72" stroke-width="15.5414"/>
<path d="M385.742 267.089C384.308 270.75 382.048 274.03 379.137 276.674L378.748 277.062C373.732 281.764 367.102 284.361 360.226 284.316H323.182C320.98 284.312 318.931 283.19 317.742 281.336L311.525 271.363L285.361 229.526C284.345 228.049 284.06 226.189 284.584 224.475C284.982 222.713 286.113 221.205 287.693 220.33L345.979 187.949C349.132 186.291 353.033 187.438 354.787 190.54L384.836 244.163C388.589 251.274 388.922 259.703 385.742 267.089Z" fill="#5EA68A"/>
<path d="M246.244 130.051L240.804 137.694L211.921 177.976C210.707 179.703 208.72 180.721 206.61 180.696C205.527 180.684 204.462 180.418 203.501 179.919L132.263 141.061C130.606 140.183 129.422 138.619 129.025 136.787C128.616 134.932 129.042 132.99 130.191 131.476L157.909 94.5619C159.014 93.0525 160.227 91.6245 161.535 90.2876C169.338 82.0565 180.116 77.2977 191.455 77.0761C192.063 77.0548 192.671 77.0979 193.269 77.2054C207.124 77.6231 219.958 84.5931 227.852 95.9862L246.244 122.668C247.784 124.889 247.784 127.832 246.244 130.051Z" fill="#5EA68A"/>
<path d="M204.536 256.726C202.565 258.537 199.683 258.95 197.283 257.763L177.077 247.66L165.291 271.363L160.628 280.688C159.511 282.887 157.265 284.284 154.799 284.315H104.803C97.8579 284.399 91.1581 281.747 86.1515 276.932L85.8923 276.673C82.9094 273.935 80.5652 270.575 79.0273 266.829C77.0395 261.761 76.589 256.22 77.7322 250.898C78.2362 248.609 79.0188 246.39 80.0637 244.292L101.565 201.419L79.0273 178.752C77.1069 176.965 76.5343 174.154 77.6023 171.758C78.5956 169.34 80.9459 167.756 83.5602 167.743H167.751C170.366 167.756 172.716 169.34 173.709 171.758L206.09 249.473C207.096 251.982 206.482 254.85 204.536 256.726Z" fill="#5EA68A"/>
<path d="M206.61 277.838V355.553C206.61 359.13 203.711 362.03 200.134 362.03H168.659C153.795 362.064 139.877 354.741 131.486 342.472C129.672 339.881 128.118 337.549 126.694 335.477L126.176 334.959C126.305 334.959 123.715 331.333 121.254 327.706C120.088 326.151 119.181 324.597 118.274 323.431C114.906 318.509 113.093 316.049 113.871 317.085C113.223 316.049 112.576 315.271 112.316 314.754L112.187 314.624C111.669 313.847 111.5 313.588 111.475 313.523L111.281 313.329L111.151 313.07C102.085 299.988 93.6654 287.813 86.1532 276.933L85.894 276.673C83.4332 273.306 81.2311 269.938 79.029 266.83C77.0412 261.762 76.5907 256.22 77.7339 250.898L95.2197 267.607C97.78 270.096 101.235 271.449 104.805 271.363H200.135C203.711 271.363 206.61 274.262 206.61 277.838Z" fill="#458E72"/>
<path d="M348.569 111.918L316.188 189.632C315.195 192.051 312.844 193.635 310.23 193.647C309.837 193.669 309.443 193.625 309.064 193.518L237.826 180.566C235.109 180.01 233.005 177.855 232.515 175.126C232.127 172.331 233.595 169.606 236.142 168.391L255.311 158.806L240.805 137.693L217.231 103.24C211.533 95.1441 202.262 90.3155 192.362 90.2876H161.536C167.94 83.5076 176.413 79.0432 185.627 77.594L191.456 77.2054H193.269L276.942 77.0761C287.806 77.0238 297.972 82.4232 304.013 91.4533L318.908 113.991L339.762 103.628C342.161 102.441 345.044 102.853 347.015 104.665C348.963 106.54 349.578 109.41 348.569 111.918Z" fill="#458E72"/>
<path d="M385.741 267.088L379.653 275.896L379.136 276.673L378.747 277.062L333.672 342.472C325.228 354.748 311.27 362.067 296.369 362.03H284.324V381.458C284.303 384.14 282.666 386.544 280.179 387.546C279.428 387.801 278.64 387.932 277.847 387.935C276.002 387.948 274.246 387.142 273.055 385.733L221.245 327.447C219.19 325.216 219.027 321.835 220.857 319.416L272.666 248.178C274.255 245.897 277.133 244.903 279.79 245.717C282.502 246.57 284.341 249.091 284.324 251.934V271.363H360.225C363.795 271.45 367.249 270.096 369.81 267.606L387.296 250.898C388.489 256.324 387.945 261.988 385.741 267.088Z" fill="#458E72"/>
</svg>
