<svg width="465" height="465" viewBox="0 0 465 465" fill="none" xmlns="http://www.w3.org/2000/svg">
<path d="M395.409 268.292C394.278 266.891 392.575 266.099 390.773 266.137C376.229 266.483 362.893 265.226 351.295 263.277C338.41 261.112 326.238 256.653 314.936 250.276C283.004 258.361 252.28 262.832 250.489 263.083C249.963 263.161 249.424 263.198 248.898 263.198C246.293 263.198 243.756 262.293 241.723 260.619C239.284 258.597 237.814 255.637 237.659 252.467C237.65 252.221 237.408 244.34 239.814 232.696C243.921 212.858 255.995 182.118 290.046 159.182C284.488 145.324 274.734 133.719 269.065 127.739C268.243 126.871 267.021 126.513 265.856 126.805C264.704 127.095 263.791 127.986 263.474 129.138C258.662 146.686 244.118 159.939 244.118 159.939C225.301 180.195 218.459 199.824 216.978 216.258C210.067 207.623 199.567 201.983 187.649 201.983C172.732 201.983 159.933 210.655 153.87 223.221C151.289 228.548 148.093 233.524 144.489 238.188C142.406 232.107 139.736 225.964 136.878 219.839C144.798 222.597 153.155 218.559 154.572 210.1C156.494 201.472 143.995 173.802 143.608 173.989C143.72 174.131 128.979 192.35 127.321 200.44C122.772 192.114 117.83 184.369 112.952 177.449C113.712 177.746 114.412 178.179 115.226 178.328C121.575 179.498 127.067 175.154 127.09 168.151C127.429 161.022 113.984 140.519 113.753 140.678C113.843 140.756 103.654 158.17 103.548 164.841C100.454 160.924 97.5939 157.506 95.1006 154.646C98.8925 150.692 98.9586 143.881 94.5405 138.757C89.776 132.883 68.4872 127.052 68.5196 127.315C68.8039 127.365 73.8481 148.114 77.8667 153.145C81.8987 157.791 88.2712 159.021 93.0264 156.281C95.0589 159.231 97.3552 162.663 99.8472 166.585C92.8373 164.904 75.7695 170.512 75.8468 170.599C76.0313 170.462 88.9621 186.229 94.6066 188.794C100.419 191.131 107.139 188.149 109.091 182.074C112.776 188.676 116.456 195.882 119.838 203.437C111.503 200.349 90.6858 204.013 90.7519 204.167C91.0481 203.99 103.263 224.729 109.416 228.904C115.751 232.731 124.291 231.19 128.004 224.59C130.03 230.668 131.912 236.729 133.636 242.508C134.261 244.475 134.854 246.287 135.471 248.194C133.359 250.176 131.187 252.104 128.879 253.867L126.539 255.646C125.782 256.222 125.486 257.211 125.782 258.107C126.091 259.003 126.925 259.606 127.88 259.606H132.723C134.953 259.606 137.141 259.865 139.325 260.123C140.05 262.336 140.797 264.643 141.456 266.692C145.982 280.982 149.43 290.874 149.474 290.868C149.552 291.077 149.717 291.247 149.915 291.286C150.256 291.346 150.54 291.11 150.585 290.737C150.54 290.759 152.091 280.242 150.265 264.802C150.179 264.016 149.968 263.099 149.861 262.292C155.519 264.098 160.878 266.779 165.766 270.31C171.61 274.54 178.751 277.045 186.461 277.292C192.371 300.721 221.513 324.871 256.663 324.871C283.74 324.871 307.281 315.057 319.375 300.589C321.296 298.284 324.625 297.728 327.197 299.287C345.714 310.553 362.774 327.017 372.034 336.679C373.495 338.206 375.671 338.816 377.703 338.267C379.744 337.718 381.315 336.103 381.821 334.048L396.528 273.27C396.948 271.525 396.528 269.687 395.409 268.292Z" fill="#458E72"/>
<path d="M248.898 251.951C248.898 251.951 308.63 243.4 347.778 228.489C386.927 213.571 385.17 151.559 379.668 130.539C379.27 129.056 378.118 127.897 376.624 127.507C376.274 127.413 375.909 127.365 375.547 127.365C374.416 127.365 373.317 127.821 372.495 128.66C356.202 145.45 331.598 151.382 331.598 151.382C245.557 179.877 248.898 251.951 248.898 251.951Z" fill="#458E72"/>
<circle cx="232.5" cy="232.5" r="220.515" stroke="#458E72" stroke-width="23.9691"/>
</svg>
