<svg width="465" height="465" viewBox="0 0 465 465" fill="none" xmlns="http://www.w3.org/2000/svg">
<path d="M248.557 205.739C246.252 208.171 242.994 209.452 239.643 209.245C238.484 209.171 210.931 207.277 182.75 192.091C156.119 177.74 123.982 148.621 122.116 91.3893C122.013 88.2681 123.208 85.2447 125.416 83.0363C128.783 79.6675 132.734 79.6675 134.422 79.6675C134.422 79.6675 134.422 79.6675 134.422 79.6675C135.616 79.6675 163.681 79.8691 192.598 97.2082C207.609 106.21 220.089 118.176 229.693 132.776C241.293 150.414 248.655 171.904 251.573 196.648C251.966 199.977 250.86 203.306 248.557 205.739Z" fill="#458E72"/>
<path d="M230.044 133.336C225.309 142.076 221.315 151.919 218.449 163.008C215.872 170.705 211.936 184.227 208.688 202.937C225.821 208.299 238.852 209.195 239.641 209.245C242.993 209.453 246.25 208.172 248.554 205.739C250.858 203.306 251.964 199.977 251.571 196.649C248.683 172.163 241.436 150.869 230.044 133.336Z" fill="#3D866A"/>
<path d="M238.868 186.365L214.535 162.637L208.119 130.663C207.611 128.128 205.145 126.488 202.611 126.996C200.076 127.504 198.436 129.971 198.943 132.504L202.669 151.066L189.249 137.98L182.744 105.566C182.237 103.032 179.77 101.394 177.236 101.899C174.702 102.407 173.062 104.873 173.569 107.407L177.383 126.409L146.068 95.8742C144.216 94.0702 141.256 94.1083 139.451 95.9577C137.647 97.8082 137.685 100.77 139.535 102.574L173.968 136.15L149.948 135.74C147.367 135.67 145.234 137.755 145.19 140.338C145.146 142.922 147.204 145.052 149.788 145.096L183.737 145.677L199.709 161.253L175.322 160.837C172.762 160.78 170.609 162.852 170.564 165.436C170.52 168.019 172.578 170.149 175.162 170.194L209.478 170.78L232.332 193.066C233.243 193.953 234.421 194.394 235.598 194.394C236.815 194.394 238.031 193.922 238.949 192.982C240.755 191.131 240.718 188.169 238.868 186.365Z" fill="#75AB71"/>
<path d="M358.866 83.1957C356.561 80.7635 353.303 79.4821 349.953 79.6897C348.793 79.763 321.241 81.6571 293.059 96.8432C271.403 108.513 246.109 129.948 236.409 168.323C231.111 183.924 219.439 226.236 222.169 289.942C222.405 295.454 226.948 299.763 232.412 299.763C232.56 299.763 232.709 299.76 232.859 299.753C238.52 299.511 242.912 294.725 242.67 289.064C241.255 256.06 243.973 229.079 247.475 209.17C255.355 208.719 278.833 206.161 302.907 191.726C317.918 182.725 330.398 170.758 340.002 156.158C351.603 138.52 358.964 117.03 361.883 92.2867C362.275 88.9578 361.17 85.6284 358.866 83.1957Z" fill="#458E72"/>
<path d="M344.132 95.9579C342.326 94.108 339.365 94.0704 337.515 95.8744L306.203 126.408L310.016 107.407C310.524 104.874 308.883 102.408 306.349 101.899C303.818 101.393 301.349 103.032 300.841 105.566L294.336 137.98L280.916 151.066L284.642 132.504C285.15 129.97 283.509 127.505 280.975 126.996C278.442 126.489 275.975 128.129 275.467 130.663L269.05 162.638L244.717 186.366C242.866 188.17 242.83 191.132 244.633 192.982C245.551 193.922 246.766 194.394 247.984 194.394C249.162 194.394 250.34 193.953 251.25 193.066L274.104 170.779L308.421 170.193C311.005 170.149 313.063 168.02 313.019 165.435C312.976 162.878 310.89 160.836 308.343 160.836C308.315 160.836 308.288 160.836 308.261 160.837L283.873 161.253L299.846 145.676L333.794 145.096C336.378 145.052 338.436 142.922 338.393 140.338C338.349 137.781 336.263 135.739 333.716 135.739C333.689 135.739 333.661 135.739 333.635 135.74L309.615 136.15L344.048 102.573C345.899 100.77 345.936 97.8078 344.132 95.9579Z" fill="#7CB678"/>
<path d="M347.75 324.332C343.032 324.332 338.624 325.661 334.878 327.964C329.346 309.863 312.513 296.695 292.601 296.695C290.391 296.695 288.221 296.862 286.099 297.176C277.073 276.526 256.477 262.09 232.501 262.09C208.524 262.09 187.928 276.526 178.902 297.176C176.779 296.862 174.609 296.695 172.401 296.695C152.489 296.695 135.656 309.863 130.123 327.964C126.377 325.661 121.97 324.332 117.251 324.332C103.652 324.332 92.6279 335.357 92.6279 348.955C92.6279 362.554 103.652 373.578 117.251 373.578C124.539 373.578 131.084 370.411 135.592 365.379C143.515 377.269 157.04 385.108 172.4 385.108C184.839 385.108 196.072 379.962 204.104 371.693C212.513 376.375 222.192 379.051 232.501 379.051C242.809 379.051 252.488 376.374 260.898 371.693C268.931 379.962 280.162 385.108 292.601 385.108C307.961 385.108 321.487 377.271 329.41 365.379C333.918 370.411 340.463 373.578 347.75 373.578C361.349 373.578 372.373 362.554 372.373 348.955C372.373 335.356 361.349 324.332 347.75 324.332Z" fill="#24624A"/>
<path d="M264.647 286.029C270.462 286.029 276.073 286.89 281.376 288.47C270.921 272.583 252.94 262.089 232.501 262.089C208.524 262.089 187.928 276.526 178.902 297.175C176.779 296.862 174.609 296.695 172.401 296.695C152.489 296.695 135.656 309.862 130.123 327.963C126.377 325.661 121.97 324.332 117.251 324.332C103.652 324.332 92.6279 335.356 92.6279 348.955C92.6279 362.553 103.652 373.578 117.251 373.578C124.539 373.578 131.084 370.41 135.592 365.379C143.515 377.269 157.04 385.107 172.4 385.107C184.839 385.107 196.072 379.961 204.104 371.692C207.771 373.734 211.68 375.393 215.777 376.617C209.708 367.399 206.167 356.37 206.167 344.509C206.167 312.212 232.35 286.029 264.647 286.029Z" fill="#245643"/>
<path d="M255.758 341.43C261.613 341.43 266.359 336.683 266.359 330.828C266.359 324.973 261.613 320.227 255.758 320.227C249.903 320.227 245.156 324.973 245.156 330.828C245.156 336.683 249.903 341.43 255.758 341.43Z" fill="#245643"/>
<path d="M298.501 366.395C304.356 366.395 309.103 361.648 309.103 355.793C309.103 349.938 304.356 345.192 298.501 345.192C292.646 345.192 287.9 349.938 287.9 355.793C287.9 361.648 292.646 366.395 298.501 366.395Z" fill="#245643"/>
<path d="M291.983 323.597C294.236 323.597 296.062 321.771 296.062 319.518C296.062 317.265 294.236 315.438 291.983 315.438C289.73 315.438 287.903 317.265 287.903 319.518C287.903 321.771 289.73 323.597 291.983 323.597Z" fill="#245643"/>
<path d="M232.5 363.953C234.753 363.953 236.579 362.127 236.579 359.874C236.579 357.621 234.753 355.794 232.5 355.794C230.247 355.794 228.42 357.621 228.42 359.874C228.42 362.127 230.247 363.953 232.5 363.953Z" fill="#245643"/>
<path d="M245.152 308.351C247.404 308.351 249.231 306.525 249.231 304.272C249.231 302.019 247.404 300.192 245.152 300.192C242.899 300.192 241.072 302.019 241.072 304.272C241.072 306.525 242.899 308.351 245.152 308.351Z" fill="#245643"/>
<path d="M332.931 345.513C335.184 345.513 337.01 343.686 337.01 341.433C337.01 339.18 335.184 337.354 332.931 337.354C330.678 337.354 328.852 339.18 328.852 341.433C328.852 343.686 330.678 345.513 332.931 345.513Z" fill="#245643"/>
<path d="M309.106 279.508C314.961 279.508 319.707 274.761 319.707 268.906C319.707 263.051 314.961 258.305 309.106 258.305C303.251 258.305 298.504 263.051 298.504 268.906C298.504 274.761 303.251 279.508 309.106 279.508Z" fill="#24624A"/>
<path d="M332.93 296.691C335.183 296.691 337.01 294.864 337.01 292.612C337.01 290.359 335.183 288.532 332.93 288.532C330.677 288.532 328.851 290.359 328.851 292.612C328.851 294.864 330.677 296.691 332.93 296.691Z" fill="#24624A"/>
<path d="M332.93 277.065C335.183 277.065 337.01 275.239 337.01 272.986C337.01 270.733 335.183 268.907 332.93 268.907C330.677 268.907 328.851 270.733 328.851 272.986C328.851 275.239 330.677 277.065 332.93 277.065Z" fill="#24624A"/>
<path d="M146.911 275.765C152.766 275.765 157.512 271.018 157.512 265.163C157.512 259.308 152.766 254.562 146.911 254.562C141.056 254.562 136.309 259.308 136.309 265.163C136.309 271.018 141.056 275.765 146.911 275.765Z" fill="#245643"/>
<path d="M129.305 292.612C131.558 292.612 133.385 290.785 133.385 288.532C133.385 286.279 131.558 284.453 129.305 284.453C127.052 284.453 125.226 286.279 125.226 288.532C125.226 290.785 127.052 292.612 129.305 292.612Z" fill="#245643"/>
<path d="M457.229 232.5C457.229 356.615 356.615 457.229 232.5 457.229C108.385 457.229 7.77072 356.615 7.77072 232.5C7.77072 108.385 108.385 7.77072 232.5 7.77072C356.615 7.77072 457.229 108.385 457.229 232.5Z" stroke="#458E72" stroke-width="15.5414"/>
</svg>
