<svg width="35" height="35" viewBox="0 0 35 35" fill="none" xmlns="http://www.w3.org/2000/svg">
<path d="M0.088913 10.2901C0.170906 8.43041 0.471642 7.15189 0.902443 6.04404C1.34686 4.86808 2.03059 3.81525 2.92638 2.94003C3.8016 2.05118 4.86138 1.36051 6.02372 0.923032C7.13798 0.49223 8.40981 0.191497 10.2695 0.109503C12.1431 0.0205652 12.7379 0 17.4898 0C22.2417 0 22.8364 0.0205652 24.7031 0.102559C26.5628 0.184553 27.8413 0.485553 28.9489 0.916088C30.1251 1.36051 31.1779 2.04424 32.0531 2.94003C32.942 3.81525 33.6324 4.87503 34.0701 6.03736C34.5009 7.15189 34.8017 8.42347 34.8837 10.2832C34.9726 12.1567 34.9932 12.7515 34.9932 17.5034C34.9932 22.2553 34.9726 22.8501 34.8906 24.7167C34.8086 26.5764 34.5076 27.8549 34.0768 28.9628C33.6324 30.1388 32.942 31.1916 32.0531 32.0668C31.1779 32.9557 30.1181 33.6463 28.9558 34.0838C27.8413 34.5146 26.5697 34.8153 24.7098 34.8973C22.8434 34.9796 22.2483 34.9999 17.4964 34.9999C12.7445 34.9999 12.1497 34.9796 10.2831 34.8973C8.42344 34.8153 7.14492 34.5146 6.03734 34.0838C3.68516 33.1744 1.82547 31.3147 0.916061 28.9628C0.485527 27.8483 0.184528 26.5764 0.102535 24.7167C0.0205421 22.8501 -2.28882e-05 22.2553 -2.28882e-05 17.5034C-2.28882e-05 12.7515 0.00691986 12.1567 0.088913 10.2901ZM3.24073 24.58C3.31605 26.2893 3.60316 27.2123 3.84247 27.8277C4.43058 29.3525 5.64072 30.5626 7.16549 31.1507C7.78084 31.39 8.71055 31.6771 10.4132 31.7522C12.2593 31.8344 12.8129 31.8547 17.4828 31.8547C22.1527 31.8547 22.7133 31.8344 24.5527 31.7522C26.262 31.6771 27.1851 31.39 27.8004 31.1507C28.5592 30.8703 29.2499 30.4259 29.8105 29.8447C30.3916 29.2771 30.8361 28.5934 31.1165 27.8346C31.3558 27.2193 31.6429 26.2893 31.718 24.5869C31.8002 22.7409 31.8205 22.187 31.8205 17.517C31.8205 12.8471 31.8002 12.2865 31.718 10.4474C31.6429 8.73809 31.3558 7.81506 31.1165 7.1997C30.8361 6.44066 30.3916 5.75025 29.8035 5.18938C29.2362 4.60821 28.5525 4.16379 27.7935 3.88362C27.1781 3.64432 26.2481 3.35721 24.5458 3.28189C22.6997 3.1999 22.1458 3.17933 17.4761 3.17933C12.7993 3.17933 12.2456 3.1999 10.4062 3.28189C8.69693 3.35721 7.7739 3.64432 7.15854 3.88362C6.39977 4.16379 5.7091 4.60821 5.14849 5.18938C4.56732 5.75693 4.1229 6.44066 3.84247 7.1997C3.60316 7.81506 3.31605 8.74477 3.24073 10.4474C3.15874 12.2935 3.13817 12.8471 3.13817 17.517C3.13817 22.187 3.15874 22.7339 3.24073 24.58Z" fill="white"/>
<path d="M17.4899 8.51245C22.4536 8.51245 26.481 12.5395 26.481 17.5035C26.481 22.4674 22.4536 26.4945 17.4899 26.4945C12.526 26.4945 8.49893 22.4674 8.49893 17.5035C8.49893 12.5395 12.526 8.51245 17.4899 8.51245ZM17.4899 23.3357C20.7101 23.3357 23.3222 20.7239 23.3222 17.5035C23.3222 14.283 20.7101 11.6712 17.4899 11.6712C14.2695 11.6712 11.6577 14.283 11.6577 17.5035C11.6577 20.7239 14.2695 23.3357 17.4899 23.3357Z" fill="white"/>
<path d="M6.04417 8.15685C6.04417 9.31599 6.98403 10.2558 8.14343 10.2558C9.30257 10.2558 10.2424 9.31599 10.2424 8.15685C10.2424 6.99745 9.30257 6.05786 8.14343 6.05786C6.98403 6.05786 6.04417 6.99745 6.04417 8.15685Z" fill="white"/>
</svg>
