<svg width="396" height="399" viewBox="0 0 396 399" fill="none" xmlns="http://www.w3.org/2000/svg">
<path d="M237.892 3.66165C101.892 -19.5384 28.8921 73.1617 8.89209 122.662C63.6921 50.6617 133.725 36.3284 161.892 38.1617C280.392 44.6617 330.892 119.162 345.892 171.162C360.892 223.162 353.392 265.162 339.392 304.662C328.192 336.262 300.392 358.495 287.892 365.662C266.725 376.995 215.692 390.562 180.892 354.162C137.392 308.662 160.892 220.662 241.392 212.662C206.592 209.862 182.892 221.495 175.392 227.662C128.592 262.862 132.559 313.328 140.392 334.162C175.392 427.162 273.392 382.162 276.392 382.162C388.792 335.762 401.225 220.162 393.392 168.162C375.392 53.3617 282.225 10.6617 237.892 3.66165Z" fill="#FFA300"/>
<path d="M190.892 309.162C172.892 280.762 197.059 244.662 211.392 230.162C140.592 287.362 176.225 336.328 202.892 353.662C235.392 372.162 283.892 371.662 321.892 318.662C352.292 276.262 344.559 212.662 336.892 186.162C316.892 103.162 259.392 71.6617 230.892 62.6617C202.392 53.6617 131.392 37.1617 60.392 93.1617C3.59199 137.962 -2.94134 212.162 0.891989 243.662C2.49199 229.262 8.55866 211.328 11.392 204.162C38.892 135.662 89.392 112.162 115.392 105.162C199.392 81.1618 261.059 126.162 281.392 151.662C312.892 190.662 321.392 223.662 319.392 261.162C317.392 298.662 294.392 330.662 272.892 337.662C251.392 344.662 213.392 344.662 190.892 309.162Z" fill="#2CB122"/>
<path d="M220.392 273.662C207.592 251.662 226.392 231.495 237.392 224.662C186.892 242.662 197.559 286.495 210.892 302.662C249.692 339.862 282.725 318.162 294.392 302.662C337.192 234.262 289.225 166.828 259.892 141.662C174.692 76.8617 92.3921 122.328 61.8921 153.162C-4.50793 228.762 28.5587 308.995 53.3921 339.662C23.8921 262.162 55.3921 213.548 68.3921 197.162C115.992 137.162 186.892 142.828 216.392 153.162C254.392 165.162 283.392 188.162 292.892 222.662C302.392 257.162 291.892 278.162 279.392 287.162C266.892 296.162 236.392 301.162 220.392 273.662Z" fill="#0C2D62"/>
<path d="M163.892 170.162C225.892 157.762 271.059 200.995 285.892 224.162C260.392 192.162 148.392 158.662 105.892 254.162C71.8921 330.562 126.392 381.995 157.892 398.162C52.3921 366.162 69.3921 272.162 70.3921 265.662C71.3921 259.162 86.3921 185.662 163.892 170.162Z" fill="#2CB122"/>
</svg>
