<svg width="200" height="200" viewBox="0 0 200 200" fill="none" xmlns="http://www.w3.org/2000/svg">
<circle cx="100" cy="100" r="99" fill="#FFC358" fill-opacity="0.24" stroke="white" stroke-width="2"/>
<g clip-path="url(#clip0)">
<path d="M149.878 41.1424H50.5413H34.2542V152.37H44.1098V159.41H55.3734V152.37H144.074V159.41H155.338V152.37H165.193V41.1424H149.878ZM156.014 143.923H43.4959C42.7173 143.923 41.2939 143.178 41.2939 142.399V101.569C41.2939 100.792 42.7173 100.276 43.4959 100.276H134.683C135.462 100.276 136.091 100.907 136.091 101.684C136.091 102.463 135.462 103.092 134.683 103.092H44.1098V141.107H153.93V101.569C153.93 100.792 154.559 100.161 155.338 100.161C156.116 100.161 156.746 100.792 156.746 101.569V142.399C156.746 143.178 156.792 143.923 156.014 143.923ZM112.86 122.803C112.86 123.582 112.231 124.211 111.452 124.211H88.0575C87.2789 124.211 86.6496 123.582 86.6496 122.803C86.6496 122.026 87.2789 121.395 88.0575 121.395H111.452C112.229 121.395 112.86 122.026 112.86 122.803ZM156.014 93.2365H43.4959C42.7173 93.2365 41.2939 93.1928 41.2939 92.4143V51.5837C41.2939 50.8051 42.7173 49.5901 43.4959 49.5901H134.683C135.462 49.5901 136.091 50.2208 136.091 50.998C136.091 51.7766 135.462 52.406 134.683 52.406H44.1098V90.4206H153.93V51.5837C153.93 50.8051 154.559 50.1758 155.338 50.1758C156.116 50.1758 156.746 50.8051 156.746 51.5837V92.4143C156.746 93.1928 156.792 93.2365 156.014 93.2365ZM112.86 72.1173C112.86 72.8959 112.231 73.5252 111.452 73.5252H88.0575C87.2789 73.5252 86.6496 72.8959 86.6496 72.1173C86.6496 71.3401 87.2789 70.7093 88.0575 70.7093H111.452C112.229 70.7093 112.86 71.3401 112.86 72.1173Z" fill="#24624A"/>
</g>
<defs>
<clipPath id="clip0">
<rect width="130.939" height="130.939" fill="white" transform="translate(34.2542 34.8066)"/>
</clipPath>
</defs>
</svg>
