<?xml version="1.0" encoding="UTF-8"?>
<!DOCTYPE svg PUBLIC "-//W3C//DTD SVG 1.1//EN" "http://www.w3.org/Graphics/SVG/1.1/DTD/svg11.dtd">
<!-- Creator: CorelDRAW X8 -->
<svg xmlns="http://www.w3.org/2000/svg" xml:space="preserve" width="217mm" height="210mm" version="1.1" style="shape-rendering:geometricPrecision; text-rendering:geometricPrecision; image-rendering:optimizeQuality; fill-rule:evenodd; clip-rule:evenodd"
viewBox="0 0 21700 21000"
 xmlns:xlink="http://www.w3.org/1999/xlink">
 <defs>
  <style type="text/css">
   <![CDATA[
    .str1 {stroke:#458E72;stroke-width:50}
    .str0 {stroke:#458E72;stroke-width:1000}
    .fil0 {fill:none}
    .fil1 {fill:#458E72}
   ]]>
  </style>
 </defs>
 <g id="Capa_x0020_1">
  <metadata id="CorelCorpID_0Corel-Layer"/>
  <circle class="fil0 str0" cx="10901" cy="10489" r="9966"/>
  <g id="_2226445290352">
   <path class="fil1 str1" d="M14978 7274c361,-56 754,-213 1125,-308l924 -181c52,-2 127,-3 178,5 380,57 -244,-74 108,27l100 42c-160,432 -1466,767 -1925,948 456,27 1465,-245 1777,16 -179,307 -1095,545 -1543,638 376,47 835,-41 1066,145 -209,220 -588,255 -965,317 286,126 451,51 634,286 -648,772 -5184,1118 -5072,2189 124,245 492,394 812,449 448,-701 1643,-1256 2475,-1616 1156,-500 1814,-637 2477,-1620 2919,-4330 -1263,-2420 -2171,-1337z"/>
   <path class="fil1 str1" d="M2564 7087c1173,-61 2082,-260 3367,-103 1299,159 1727,444 2203,1415 687,1401 577,2038 2258,3167 316,212 838,551 1209,659 -311,-291 -862,-434 -1598,-1173 -442,-444 -881,-1052 -770,-1930 328,-47 452,288 444,-455l178 -61c-48,-276 -82,-374 -213,-573 23,2 117,16 120,16 8,-1 28,-3 36,-5l114 -38c-388,-305 -681,-607 -1345,-827 -646,-213 -1170,-279 -1905,-332 -1124,-80 -3210,-151 -4098,240z"/>
   <path class="fil1 str1" d="M16836 17332c123,-410 -260,-987 -443,-1404 -159,-365 -452,-1082 -627,-1355 115,624 910,1746 826,2397 -314,-36 -433,-453 -670,-932 -185,-375 -383,-728 -543,-1085 -35,265 633,1414 674,1901 -520,-61 -574,-614 -753,-1039 -170,-403 -380,-893 -541,-1289l278 1225c-123,-109 -225,-174 -344,-291 -312,-305 -670,-755 -889,-1158 -487,-895 -392,-1616 -555,-2142 -293,2922 2537,5378 3587,5172z"/>
   <path class="fil1 str1" d="M10920 9529c14,-9 33,-43 40,-32 6,11 30,-25 38,-33l529 -632c1520,-1776 3370,-2611 5593,-3079l295 -103c-1623,-61 -2968,463 -4001,1152 -770,515 -2195,1893 -2494,2727z"/>
   <path class="fil1 str1" d="M7260 6576c67,57 -29,61 373,116 145,20 257,42 417,67 197,-926 909,-1163 1866,-726 1104,503 842,1008 1447,1571 -917,-2412 -3298,-2408 -4103,-1028z"/>
   <path class="fil1 str1" d="M8688 6763l466 27 52 -291c-265,-395 -662,-208 -518,264z"/>
  </g>
 </g>
</svg>
