<svg width="125" height="119" viewBox="0 0 125 119" fill="none" xmlns="http://www.w3.org/2000/svg">
<path d="M36.1337 91.6287C30.6726 91.331 30.7754 83.1339 36.1335 82.8492C51.3112 82.9055 91.3437 82.8643 107.004 82.8761C111.287 82.8761 114.952 79.7654 115.915 75.3121L124.808 34.2192C125.317 31.8663 124.803 29.4311 123.398 27.5384C121.993 25.6456 119.89 24.5448 117.627 24.5448C111.327 24.5448 57.8501 24.2865 30.4593 24.17L26.1174 6.97772C25.0751 2.86924 21.5618 0 17.5733 0H3.66406C1.64052 0 0 1.75069 0 3.91011C0 6.06953 1.64052 7.82022 3.66406 7.82022H17.5733C18.2599 7.82022 18.8645 8.3142 19.0431 9.01723L35.7182 75.0397C32.7862 75.1533 30.0553 76.4259 27.9844 78.6683C25.8084 81.0248 24.6398 84.144 24.6938 87.4517C24.8018 94.0668 29.9336 99.4487 36.1337 99.4487H41.4764C40.6823 101.228 40.2365 103.216 40.2365 105.314C40.2365 112.861 45.9895 119 53.0612 119C60.1328 119 65.8858 112.861 65.8858 105.314C65.8858 103.216 65.4398 101.228 64.6457 99.4487H87.782C86.9886 101.227 86.5428 103.215 86.5428 105.312C86.5428 112.859 92.2961 118.998 99.3675 118.998C106.439 118.998 112.192 112.858 112.192 105.312C112.192 103.133 111.71 101.073 110.858 99.2422C112.308 98.7211 113.353 97.2616 113.353 95.5388C113.353 93.3794 111.713 91.6287 109.689 91.6287H36.1337ZM58.5575 105.314C58.5575 108.549 56.0918 111.18 53.0609 111.18C50.03 111.18 47.5643 108.549 47.5643 105.314C47.5643 102.082 50.0276 99.4515 53.0563 99.4489H53.0656C56.0943 99.4515 58.5575 102.082 58.5575 105.314ZM99.3677 111.178C96.3371 111.178 93.8712 108.546 93.8712 105.312C93.8712 102.11 96.289 99.5003 99.2786 99.4489H99.4572C102.447 99.5003 104.865 102.11 104.865 105.312C104.865 108.546 102.399 111.178 99.3677 111.178ZM117.654 32.3937C117.676 32.4229 117.672 32.4367 117.668 32.4591L113.921 49.7744H101.233L103.394 32.3032L117.598 32.3642C117.619 32.3648 117.632 32.3648 117.654 32.3937ZM79.8786 75.0556V57.5946H92.8743L90.715 75.0556H79.8786ZM61.7093 75.0556L59.5324 57.5946H72.5505V75.0556H61.7093ZM44.8417 75.0556H44.8302C43.9372 75.0553 43.1504 74.4125 42.9181 73.4968L38.9018 57.5946H52.1395L54.3165 75.0556H44.8417ZM58.5572 49.7746L56.3537 32.1012L72.5503 32.1708V49.7746H58.5572ZM79.8786 49.7746V32.2024L96.0059 32.2717L93.8414 49.7746H79.8786ZM48.9569 32.0692L51.1644 49.7744H36.9266L32.4369 31.998L48.9569 32.0692ZM107.004 75.0556H98.1063L100.266 57.5946H112.228L108.775 73.5523C108.584 74.4375 107.855 75.0556 107.004 75.0556Z" fill="white"/>
</svg>
