<svg width="40" height="40" viewBox="0 0 40 40" fill="none" xmlns="http://www.w3.org/2000/svg">
<g clip-path="url(#clip0)">
<path d="M25.5176 14.4921C25.0002 14.4921 24.5808 14.9114 24.5808 15.4288V33.1337C24.5808 33.6508 25.0002 34.0705 25.5176 34.0705C26.035 34.0705 26.4543 33.6508 26.4543 33.1337V15.4288C26.4543 14.9114 26.035 14.4921 25.5176 14.4921Z" fill="black"/>
<path d="M14.4636 14.4921C13.9462 14.4921 13.5269 14.9114 13.5269 15.4288V33.1337C13.5269 33.6508 13.9462 34.0705 14.4636 34.0705C14.981 34.0705 15.4004 33.6508 15.4004 33.1337V15.4288C15.4004 14.9114 14.981 14.4921 14.4636 14.4921Z" fill="black"/>
<path d="M6.40739 11.908V34.9879C6.40739 36.3521 6.90761 37.6332 7.78144 38.5524C8.65124 39.4742 9.86172 39.9974 11.1285 39.9996H28.8524C30.1196 39.9974 31.3301 39.4742 32.1995 38.5524C33.0734 37.6332 33.5736 36.3521 33.5736 34.9879V11.908C35.3106 11.447 36.4362 9.76883 36.2038 7.98641C35.9711 6.20436 34.4529 4.8713 32.6555 4.87093H27.8593V3.69998C27.8648 2.71528 27.4755 1.76973 26.7784 1.07411C26.0813 0.378854 25.1343 -0.00829345 24.1496 -0.000243128H15.8314C14.8467 -0.00829345 13.8997 0.378854 13.2026 1.07411C12.5055 1.76973 12.1162 2.71528 12.1217 3.69998V4.87093H7.3255C5.52808 4.8713 4.00986 6.20436 3.77713 7.98641C3.54477 9.76883 4.67035 11.447 6.40739 11.908ZM28.8524 38.1261H11.1285C9.52689 38.1261 8.28092 36.7502 8.28092 34.9879V11.9903H31.7001V34.9879C31.7001 36.7502 30.4541 38.1261 28.8524 38.1261ZM13.9952 3.69998C13.989 3.2122 14.1807 2.74272 14.5269 2.39839C14.8727 2.05405 15.3433 1.86487 15.8314 1.87329H24.1496C24.6377 1.86487 25.1083 2.05405 25.4541 2.39839C25.8003 2.74236 25.992 3.2122 25.9858 3.69998V4.87093H13.9952V3.69998ZM7.3255 6.74447H32.6555C33.5868 6.74447 34.3417 7.49937 34.3417 8.43064C34.3417 9.36192 33.5868 10.1168 32.6555 10.1168H7.3255C6.39422 10.1168 5.63932 9.36192 5.63932 8.43064C5.63932 7.49937 6.39422 6.74447 7.3255 6.74447Z" fill="black"/>
<path d="M19.9905 14.4921C19.4731 14.4921 19.0537 14.9114 19.0537 15.4288V33.1337C19.0537 33.6508 19.4731 34.0705 19.9905 34.0705C20.5079 34.0705 20.9272 33.6508 20.9272 33.1337V15.4288C20.9272 14.9114 20.5079 14.4921 19.9905 14.4921Z" fill="black"/>
</g>
<defs>
<clipPath id="clip0">
<rect width="40" height="40" fill="white"/>
</clipPath>
</defs>
</svg>
